<svg width="205" height="226" viewBox="0 0 205 226" fill="none" xmlns="http://www.w3.org/2000/svg">
<path fill-rule="evenodd" clip-rule="evenodd" d="M204.542 29.25C204.542 43.2705 188.455 58.5487 179.414 66.027C177.763 67.4112 175.629 68.1762 173.417 68.1762C171.205 68.1762 169.07 67.4112 167.42 66.027C165.723 64.6242 163.779 62.947 161.739 61.0551C158.584 70.4194 152.789 79.0394 144.757 86.0674C132.124 97.1217 114.989 103.332 97.1227 103.332C79.2562 103.332 62.1215 97.1217 49.488 86.0674C40.703 78.3805 34.5949 68.7892 31.6888 58.4024C21.244 57.944 12.9169 49.3311 12.9169 38.7733C12.9169 27.9218 21.7137 19.125 32.5652 19.125C43.4166 19.125 52.2135 27.9218 52.2135 38.7733C52.2135 44.0778 50.1114 48.8914 46.6949 52.4264C48.5497 61.3339 53.4594 69.61 60.878 76.1012C70.4907 84.5123 83.5283 89.2376 97.1227 89.2376C110.717 89.2376 123.755 84.5123 133.367 76.1012C142.59 68.0317 147.935 57.2039 148.354 45.8339C144.782 40.4791 142.292 34.7672 142.292 29.25C142.292 21.4924 145.571 14.0526 151.408 8.56713C157.245 3.08169 165.162 0 173.417 0C181.672 0 189.589 3.08169 195.426 8.56713C201.263 14.0526 204.542 21.4924 204.542 29.25ZM166.081 22.3557C164.135 24.1842 163.042 26.6641 163.042 29.25C163.042 31.8359 164.135 34.3158 166.081 36.1443C168.026 37.9728 170.665 39 173.417 39C176.168 39 178.807 37.9728 180.753 36.1443C182.699 34.3158 183.792 31.8359 183.792 29.25C183.792 26.6641 182.699 24.1842 180.753 22.3557C178.807 20.5272 176.168 19.5 173.417 19.5C170.665 19.5 168.026 20.5272 166.081 22.3557Z" fill="url(#paint0_linear_1_47)"/>
<path d="M37.6203 136.022C39.7589 136.022 41.5411 136.767 42.9668 138.258C44.4574 139.684 45.2027 141.466 45.2027 143.605C45.2027 145.678 44.4574 147.461 42.9668 148.951C41.5411 150.442 39.7589 151.187 37.6203 151.187C35.5465 151.187 33.7643 150.442 32.2737 148.951C30.7832 147.461 30.0379 145.678 30.0379 143.605C30.0379 141.531 30.7832 139.749 32.2737 138.258C33.7643 136.767 35.5465 136.022 37.6203 136.022Z" fill="url(#paint1_linear_1_47)"/>
<path d="M55.0209 136.022C57.1595 136.022 58.9417 136.767 60.3674 138.258C61.858 139.684 62.6033 141.466 62.6033 143.605C62.6033 145.678 61.858 147.461 60.3674 148.951C58.9417 150.442 57.1595 151.187 55.0209 151.187C52.9471 151.187 51.1649 150.442 49.6743 148.951C48.1838 147.461 47.4385 145.678 47.4385 143.605C47.4385 141.531 48.1838 139.749 49.6743 138.258C51.1649 136.767 52.9471 136.022 55.0209 136.022Z" fill="url(#paint2_linear_1_47)"/>
<path fill-rule="evenodd" clip-rule="evenodd" d="M45.6887 202.125C38.1711 202.125 32.3385 199.371 28.1909 193.862C25.145 189.65 23.622 184.206 23.622 177.531C23.622 172.411 25.1774 167.907 28.2881 164.019C32.7598 158.834 38.7868 156.242 46.3692 156.242C51.2945 156.242 55.5717 157.408 59.2009 159.741C64.3206 163.111 66.8805 168.004 66.8805 174.42V189.585H86.8237C86.0461 187.706 85.4628 185.988 85.074 184.433C84.4907 182.294 84.1991 180.026 84.1991 177.628C84.1991 172.897 85.4628 168.782 87.9903 165.282C92.3971 159.255 98.6834 156.242 106.849 156.242C112.682 156.242 117.477 157.83 121.236 161.005C125.319 164.44 127.36 168.912 127.36 174.42V190.071C127.36 192.922 126.453 195.482 124.638 197.751C122.176 200.667 119.065 202.125 115.306 202.125H66.6861C65.9732 208.8 63.4133 214.179 59.0065 218.262C53.6275 222.993 46.5312 225.358 37.7175 225.358H29.163C19.442 225.358 11.9244 222.539 6.61028 216.901C2.20343 212.235 0 206.078 0 198.431V190.265L7.58238 184.141H14.9703V196.584C14.9703 202.481 16.3637 206.661 19.1504 209.124C21.9371 211.587 26.7004 212.818 33.4402 212.818C39.208 212.818 43.4205 212.008 46.0776 210.388C48.7994 208.832 50.5816 206.078 51.4241 202.125H45.6887ZM51.9102 174.517C51.9102 172.703 51.2621 171.245 49.966 170.143C48.929 169.236 47.7301 168.782 46.3692 168.782C44.5546 168.782 42.9668 169.333 41.6059 170.435C39.4025 172.249 38.3008 175.068 38.3008 178.892C38.3008 181.678 38.9812 184.012 40.3422 185.891C42.1567 188.354 45.0082 189.585 48.8966 189.585H51.9102V174.517ZM112.39 174.517C112.39 172.508 111.612 170.953 110.057 169.851C109.02 169.138 107.951 168.782 106.849 168.782C103.673 168.782 101.405 170.24 100.044 173.156C99.3314 174.777 98.975 176.721 98.975 178.989C98.975 183.331 100.304 186.409 102.961 188.224C104.516 189.131 106.525 189.585 108.988 189.585H111.029C111.936 189.585 112.39 189.131 112.39 188.224V174.517Z" fill="url(#paint3_linear_1_47)"/>
<path d="M106.946 136.022C109.02 136.022 110.77 136.767 112.196 138.258C113.686 139.684 114.431 141.466 114.431 143.605C114.431 145.678 113.686 147.461 112.196 148.951C110.77 150.442 109.02 151.187 106.946 151.187C104.808 151.187 102.993 150.442 101.502 148.951C100.012 147.461 99.2666 145.678 99.2666 143.605C99.2666 141.531 100.012 139.749 101.502 138.258C102.993 136.767 104.808 136.022 106.946 136.022Z" fill="url(#paint4_linear_1_47)"/>
<path d="M154.52 132.523V198.431L146.938 204.555H139.55V132.523H154.52Z" fill="url(#paint5_linear_1_47)"/>
<path d="M189.871 157.408V198.431C189.871 207.245 187.019 213.985 181.316 218.651C178.011 221.437 174.09 223.382 169.554 224.483C167.286 225.002 164.758 225.261 161.972 225.261L159.444 225.067L153.32 217.387V212.235C153.514 212.3 153.871 212.364 154.389 212.429C156.074 212.753 157.565 212.915 158.861 212.915C164.24 212.786 168.225 211.457 170.818 208.93C173.475 206.273 174.803 202.19 174.803 196.681V157.408H189.871Z" fill="url(#paint6_linear_1_47)"/>
<defs>
<linearGradient id="paint0_linear_1_47" x1="-0.198322" y1="-226.793" x2="294.94" y2="-139.208" gradientUnits="userSpaceOnUse">
<stop stop-color="#61E786"/>
<stop offset="1" stop-color="#1730B3"/>
</linearGradient>
<linearGradient id="paint1_linear_1_47" x1="-0.198322" y1="-226.793" x2="294.94" y2="-139.208" gradientUnits="userSpaceOnUse">
<stop stop-color="#61E786"/>
<stop offset="1" stop-color="#1730B3"/>
</linearGradient>
<linearGradient id="paint2_linear_1_47" x1="-0.198322" y1="-226.793" x2="294.94" y2="-139.208" gradientUnits="userSpaceOnUse">
<stop stop-color="#61E786"/>
<stop offset="1" stop-color="#1730B3"/>
</linearGradient>
<linearGradient id="paint3_linear_1_47" x1="-0.198322" y1="-226.793" x2="294.94" y2="-139.208" gradientUnits="userSpaceOnUse">
<stop stop-color="#61E786"/>
<stop offset="1" stop-color="#1730B3"/>
</linearGradient>
<linearGradient id="paint4_linear_1_47" x1="-0.198322" y1="-226.793" x2="294.94" y2="-139.208" gradientUnits="userSpaceOnUse">
<stop stop-color="#61E786"/>
<stop offset="1" stop-color="#1730B3"/>
</linearGradient>
<linearGradient id="paint5_linear_1_47" x1="-0.198322" y1="-226.793" x2="294.94" y2="-139.208" gradientUnits="userSpaceOnUse">
<stop stop-color="#61E786"/>
<stop offset="1" stop-color="#1730B3"/>
</linearGradient>
<linearGradient id="paint6_linear_1_47" x1="-0.198322" y1="-226.793" x2="294.94" y2="-139.208" gradientUnits="userSpaceOnUse">
<stop stop-color="#61E786"/>
<stop offset="1" stop-color="#1730B3"/>
</linearGradient>
</defs>
</svg>
