<svg width="192" height="104" viewBox="0 0 192 104" fill="none" xmlns="http://www.w3.org/2000/svg">
<path fill-rule="evenodd" clip-rule="evenodd" d="M191.625 29.25C191.625 43.2705 175.539 58.5487 166.497 66.027C164.847 67.4112 162.712 68.1762 160.5 68.1762C158.288 68.1762 156.153 67.4112 154.503 66.027C152.806 64.6242 150.862 62.947 148.822 61.0551C145.667 70.4194 139.872 79.0394 131.84 86.0674C119.207 97.1217 102.072 103.332 84.2058 103.332C66.3394 103.332 49.2047 97.1217 36.5711 86.0674C27.7861 78.3805 21.6781 68.7892 18.7719 58.4024C8.32716 57.944 0 49.3311 0 38.7733C0 27.9218 8.79685 19.125 19.6483 19.125C30.4998 19.125 39.2966 27.9218 39.2966 38.7733C39.2966 44.0778 37.1946 48.8914 33.778 52.4264C35.6328 61.3339 40.5426 69.61 47.9611 76.1012C57.5738 84.5123 70.6114 89.2376 84.2058 89.2376C97.8002 89.2376 110.838 84.5123 120.451 76.1012C129.673 68.0317 135.018 57.2039 135.437 45.8339C131.865 40.4791 129.375 34.7672 129.375 29.25C129.375 21.4924 132.654 14.0526 138.491 8.56713C144.328 3.08169 152.245 0 160.5 0C168.755 0 176.672 3.08169 182.509 8.56713C188.346 14.0526 191.625 21.4924 191.625 29.25ZM153.164 22.3557C151.218 24.1842 150.125 26.6641 150.125 29.25C150.125 31.8359 151.218 34.3158 153.164 36.1443C155.109 37.9728 157.748 39 160.5 39C163.252 39 165.891 37.9728 167.836 36.1443C169.782 34.3158 170.875 31.8359 170.875 29.25C170.875 26.6641 169.782 24.1842 167.836 22.3557C165.891 20.5272 163.252 19.5 160.5 19.5C157.748 19.5 155.109 20.5272 153.164 22.3557Z" fill="url(#paint0_linear_1_56)"/>
<defs>
<linearGradient id="paint0_linear_1_56" x1="-0.185798" y1="-103.99" x2="219.792" y2="29.3905" gradientUnits="userSpaceOnUse">
<stop stop-color="#61E786"/>
<stop offset="1" stop-color="#1730B3"/>
</linearGradient>
</defs>
</svg>
