<svg width="63" height="69" viewBox="0 0 63 69" fill="none" xmlns="http://www.w3.org/2000/svg">
<path fill-rule="evenodd" clip-rule="evenodd" d="M37.1217 66.027C46.1636 58.5488 62.25 43.2705 62.25 29.25C62.25 21.4924 58.9708 14.0526 53.1337 8.56713C47.2966 3.08169 39.3799 0 31.125 0C22.8701 0 14.9534 3.08169 9.1163 8.56713C3.27923 14.0526 1.23007e-07 21.4924 0 29.25C0 43.2705 16.0812 58.5488 25.1283 66.027C26.7785 67.4112 28.913 68.1762 31.125 68.1762C33.337 68.1762 35.4715 67.4112 37.1217 66.027ZM20.75 29.25C20.75 26.6641 21.8431 24.1842 23.7888 22.3557C25.7345 20.5272 28.3734 19.5 31.125 19.5C33.8766 19.5 36.5155 20.5272 38.4612 22.3557C40.4069 24.1842 41.5 26.6641 41.5 29.25C41.5 31.8359 40.4069 34.3158 38.4612 36.1443C36.5155 37.9728 33.8766 39 31.125 39C28.3734 39 25.7345 37.9728 23.7888 36.1443C21.8431 34.3158 20.75 31.8359 20.75 29.25Z" fill="url(#paint0_linear_1_68)"/>
<defs>
<linearGradient id="paint0_linear_1_68" x1="-0.0603571" y1="-68.6104" x2="89.6743" y2="-41.821" gradientUnits="userSpaceOnUse">
<stop stop-color="#61E786"/>
<stop offset="1" stop-color="#1730B3"/>
</linearGradient>
</defs>
</svg>
