<svg width="190" height="93" viewBox="0 0 190 93" fill="none" xmlns="http://www.w3.org/2000/svg">
<path d="M37.6203 3.49956C39.7589 3.49956 41.5411 4.24484 42.9668 5.73539C44.4574 7.16114 45.2027 8.94332 45.2027 11.0819C45.2027 13.1558 44.4574 14.9379 42.9668 16.4285C41.5411 17.919 39.7589 18.6643 37.6203 18.6643C35.5465 18.6643 33.7643 17.919 32.2737 16.4285C30.7832 14.9379 30.0379 13.1558 30.0379 11.0819C30.0379 9.00813 30.7832 7.22595 32.2737 5.73539C33.7643 4.24484 35.5465 3.49956 37.6203 3.49956Z" fill="url(#paint0_linear_1_61)"/>
<path d="M55.0209 3.49956C57.1595 3.49956 58.9417 4.24484 60.3674 5.73539C61.858 7.16114 62.6033 8.94332 62.6033 11.0819C62.6033 13.1558 61.858 14.9379 60.3674 16.4285C58.9417 17.919 57.1595 18.6643 55.0209 18.6643C52.9471 18.6643 51.1649 17.919 49.6743 16.4285C48.1838 14.9379 47.4385 13.1558 47.4385 11.0819C47.4385 9.00813 48.1838 7.22595 49.6743 5.73539C51.1649 4.24484 52.9471 3.49956 55.0209 3.49956Z" fill="url(#paint1_linear_1_61)"/>
<path fill-rule="evenodd" clip-rule="evenodd" d="M45.6887 69.6024C38.1711 69.6024 32.3385 66.8481 28.1909 61.3395C25.145 57.1271 23.622 51.6833 23.622 45.0082C23.622 39.8885 25.1774 35.3844 28.2881 31.496C32.7598 26.3115 38.7868 23.7192 46.3692 23.7192C51.2945 23.7192 55.5717 24.8858 59.2009 27.2188C64.3206 30.5888 66.8805 35.4817 66.8805 41.8975V57.0623H69.9912V69.6024H66.6861C65.9732 76.2775 63.4133 81.6564 59.0065 85.7392C53.6275 90.4701 46.5312 92.8356 37.7175 92.8356H29.163C19.442 92.8356 11.9244 90.0165 6.61028 84.3783C2.20343 79.7122 0 73.5556 0 65.9084V57.7428L7.58238 51.6185H14.9703V64.0614C14.9703 69.9588 16.3637 74.1388 19.1504 76.6015C21.9371 79.0642 26.7004 80.2955 33.4403 80.2955C39.208 80.2955 43.4205 79.4854 46.0776 77.8652C48.7994 76.3099 50.5816 73.5556 51.4241 69.6024H45.6887ZM51.9102 41.9947C51.9102 40.1801 51.2621 38.722 49.966 37.6203C48.929 36.713 47.7301 36.2593 46.3692 36.2593C44.5546 36.2593 42.9668 36.8102 41.6059 37.9119C39.4025 39.7265 38.3008 42.5456 38.3008 46.3692C38.3008 49.1559 38.9812 51.4889 40.3422 53.3683C42.1567 55.831 45.0082 57.0623 48.8966 57.0623H51.9102V41.9947Z" fill="url(#paint2_linear_1_61)"/>
<path d="M106.946 3.49956C109.02 3.49956 110.77 4.24484 112.196 5.73539C113.686 7.16114 114.431 8.94332 114.431 11.0819C114.431 13.1558 113.686 14.9379 112.196 16.4285C110.77 17.919 109.02 18.6643 106.946 18.6643C104.808 18.6643 102.993 17.919 101.502 16.4285C100.012 14.9379 99.2666 13.1558 99.2666 11.0819C99.2666 9.00813 100.012 7.22595 101.502 5.73539C102.993 4.24484 104.808 3.49956 106.946 3.49956Z" fill="url(#paint3_linear_1_61)"/>
<path fill-rule="evenodd" clip-rule="evenodd" d="M86.8237 57.0623C86.0461 55.1829 85.4628 53.4655 85.074 51.9102C84.4907 49.7715 84.1991 47.5033 84.1991 45.1055C84.1991 40.3746 85.4628 36.2593 87.9903 32.7598C92.3971 26.7328 98.6834 23.7192 106.849 23.7192C112.682 23.7192 117.477 25.307 121.236 28.4825C125.319 31.9173 127.36 36.389 127.36 41.8975V57.5483C127.36 60.3998 126.453 62.9597 124.638 65.2279C122.176 68.1442 119.065 69.6024 115.306 69.6024H69.2287V57.0623H86.8237ZM112.39 41.9947C112.39 39.9857 111.612 38.4304 110.057 37.3286C109.02 36.6158 107.951 36.2593 106.849 36.2593C103.673 36.2593 101.405 37.7175 100.044 40.6338C99.3314 42.254 98.975 44.1982 98.975 46.4664C98.975 50.8084 100.304 53.8868 102.961 55.7013C104.516 56.6086 106.525 57.0623 108.988 57.0623H111.029C111.936 57.0623 112.39 56.6086 112.39 55.7013V41.9947Z" fill="url(#paint4_linear_1_61)"/>
<path d="M154.52 0V65.9084L146.938 72.0326H139.55V0H154.52Z" fill="url(#paint5_linear_1_61)"/>
<path d="M189.871 24.8858V65.9084C189.871 74.7221 187.019 81.462 181.316 86.1281C178.011 88.9148 174.09 90.859 169.554 91.9607C167.286 92.4791 164.758 92.7384 161.972 92.7384L159.444 92.5439L153.32 84.8643V79.7122C153.514 79.777 153.871 79.8418 154.389 79.9066C156.074 80.2307 157.565 80.3927 158.861 80.3927C164.24 80.2631 168.225 78.9345 170.818 76.4071C173.475 73.75 174.803 69.6672 174.803 64.1586V24.8858H189.871Z" fill="url(#paint6_linear_1_61)"/>
<defs>
<linearGradient id="paint0_linear_1_61" x1="-0.184097" y1="-93.4268" x2="205.801" y2="44.3184" gradientUnits="userSpaceOnUse">
<stop stop-color="#61E786"/>
<stop offset="1" stop-color="#1730B3"/>
</linearGradient>
<linearGradient id="paint1_linear_1_61" x1="-0.184097" y1="-93.4268" x2="205.801" y2="44.3184" gradientUnits="userSpaceOnUse">
<stop stop-color="#61E786"/>
<stop offset="1" stop-color="#1730B3"/>
</linearGradient>
<linearGradient id="paint2_linear_1_61" x1="-0.184097" y1="-93.4268" x2="205.801" y2="44.3184" gradientUnits="userSpaceOnUse">
<stop stop-color="#61E786"/>
<stop offset="1" stop-color="#1730B3"/>
</linearGradient>
<linearGradient id="paint3_linear_1_61" x1="-0.184097" y1="-93.4268" x2="205.801" y2="44.3184" gradientUnits="userSpaceOnUse">
<stop stop-color="#61E786"/>
<stop offset="1" stop-color="#1730B3"/>
</linearGradient>
<linearGradient id="paint4_linear_1_61" x1="-0.184097" y1="-93.4268" x2="205.801" y2="44.3184" gradientUnits="userSpaceOnUse">
<stop stop-color="#61E786"/>
<stop offset="1" stop-color="#1730B3"/>
</linearGradient>
<linearGradient id="paint5_linear_1_61" x1="-0.184097" y1="-93.4268" x2="205.801" y2="44.3184" gradientUnits="userSpaceOnUse">
<stop stop-color="#61E786"/>
<stop offset="1" stop-color="#1730B3"/>
</linearGradient>
<linearGradient id="paint6_linear_1_61" x1="-0.184097" y1="-93.4268" x2="205.801" y2="44.3184" gradientUnits="userSpaceOnUse">
<stop stop-color="#61E786"/>
<stop offset="1" stop-color="#1730B3"/>
</linearGradient>
</defs>
</svg>
